<svg width="20" height="17" viewBox="0 0 20 17" fill="none" xmlns="http://www.w3.org/2000/svg">
<path d="M10.0001 17C9.86851 17.0007 9.73805 16.9755 9.61621 16.9258C9.49437 16.876 9.38356 16.8027 9.29012 16.71L1.52012 8.92999C0.545478 7.94516 -0.0012207 6.61555 -0.0012207 5.22999C-0.0012207 3.84442 0.545478 2.51481 1.52012 1.52999C2.50238 0.550497 3.83295 0.000457764 5.22012 0.000457764C6.60729 0.000457764 7.93785 0.550497 8.92012 1.52999L10.0001 2.60999L11.0801 1.52999C12.0624 0.550497 13.3929 0.000457764 14.7801 0.000457764C16.1673 0.000457764 17.4979 0.550497 18.4801 1.52999C19.4548 2.51481 20.0015 3.84442 20.0015 5.22999C20.0015 6.61555 19.4548 7.94516 18.4801 8.92999L10.7101 16.71C10.6167 16.8027 10.5059 16.876 10.384 16.9258C10.2622 16.9755 10.1317 17.0007 10.0001 17Z" fill="white"/>
</svg>
