<svg width="154" height="106" viewBox="0 0 154 106" fill="none" xmlns="http://www.w3.org/2000/svg">
<path d="M85.7011 10.549C80.0801 12.4856 79.2844 12.8168 79.3871 13.0971C79.5668 13.6832 93.1188 24.4615 93.6578 24.4615C94.4534 24.4615 95.7368 23.4423 96.2501 22.3976C96.9431 21.0981 96.8918 20.7923 95.1978 15.5178C93.8118 11.237 93.4011 10.5745 91.5788 9.83559C90.1158 9.22405 89.2174 9.32597 85.7011 10.549Z" fill="#FF4081"/>
<path d="M60.4447 18.9831C57.339 20.0533 54.6954 21.0216 54.5414 21.1745C54.3874 21.3274 54.567 21.6331 55.183 22.1173C55.6707 22.4995 58.186 24.538 60.7527 26.6783C66.8357 31.698 68.0677 32.6154 68.812 32.6154C69.9157 32.6154 80.4647 28.9461 80.516 28.5384C80.5417 28.3091 79.0274 26.9586 76.974 25.3533C75.0234 23.799 72.5594 21.888 71.5327 21.0726C68.0164 18.2952 66.3994 17.0721 66.2454 17.0721C66.1684 17.0721 63.5504 17.9384 60.4447 18.9831Z" fill="#FF4081"/>
<path d="M34.6497 27.239C31.1847 28.3091 28.1047 29.3539 27.771 29.5322C26.924 29.9909 26.1797 31.3159 26.1797 32.3861C26.1797 33.3798 26.693 35.2144 28.0534 39.2404C28.8747 41.6611 28.8747 41.6611 29.003 65.1034C29.1314 88.5457 29.1314 88.5457 29.7217 89.9981C30.774 92.5462 32.622 94.4063 34.9834 95.2216C36.241 95.6548 37.781 95.6803 58.9047 95.6803C81.4914 95.6803 81.4914 95.6803 82.8517 94.9668C84.828 93.9221 86.0344 92.7245 87.0354 90.788C87.908 89.0808 87.908 89.0808 88.0364 73.7923C88.1904 56.3125 87.9337 57.9178 91.142 53.5096C92.8617 51.1399 93.5547 49.8914 94.53 47.3942C95.4284 45.0755 95.5567 44.5914 95.2487 44.5914C95.0947 44.5914 93.0414 46.8591 90.68 49.6111C88.293 52.3885 85.9574 55.064 85.4697 55.5991C84.5714 56.5673 84.5714 56.5673 77.7697 56.5928C70.8397 56.6183 70.4034 56.5418 71.4557 55.701C71.969 55.2678 76.4607 50.2991 78.052 48.388C78.822 47.4707 80.1054 45.9418 80.9267 45.0245C81.748 44.1072 82.364 43.2154 82.2614 43.0625C82.1587 42.9096 79.8487 42.8077 75.6907 42.8077C69.2484 42.8077 69.2484 42.8077 68.581 43.5212C66.579 45.5596 61.6254 50.9361 59.3154 53.5351C56.6717 56.4909 56.6717 56.4909 52.796 56.6438C47.5344 56.8731 43.4277 56.8731 43.2737 56.6183C43.1967 56.4909 43.5817 55.9558 44.1207 55.3952C45.1987 54.2741 52.5394 45.8654 53.8227 44.2856C54.2847 43.725 54.5927 43.139 54.5157 43.0116C54.3874 42.8077 45.9174 42.8841 37.7297 43.1644C36.78 43.1899 36.8057 42.7058 37.781 42.5274C39.7574 42.1197 54.952 37.2784 55.3114 36.9216C55.6194 36.6159 55.0547 36.1063 50.6914 32.6154C48.9974 31.2904 46.328 29.0736 44.711 27.6976C43.094 26.3471 41.5797 25.226 41.3487 25.226C41.1177 25.2515 38.1147 26.1433 34.6497 27.239ZM42.093 82.4303C43.9667 83.3986 44.1464 86.176 42.401 87.5774C41.8877 87.9851 39.5264 87.9851 39.013 87.5774C38.1917 86.9404 37.7297 85.9976 37.7297 84.9274C37.7297 84.0356 37.8837 83.7043 38.628 82.9399C39.6547 81.9207 40.784 81.7678 42.093 82.4303ZM56.954 82.4303C57.3647 82.6341 57.878 83.2202 58.1347 83.7298C59.341 86.2779 56.9027 88.8769 54.2847 87.8067C53.0527 87.2716 52.18 85.488 52.5907 84.2649C53.2324 82.4558 55.3114 81.564 56.954 82.4303ZM71.6097 82.4303C73.047 83.1692 73.586 85.2077 72.7134 86.5837C72.0204 87.6793 71.6097 87.9087 70.1724 87.9087C68.427 87.9087 67.5287 87.2207 67.3234 85.6918C67.118 84.1375 67.4004 83.424 68.4527 82.6851C69.5564 81.9462 70.5317 81.8697 71.6097 82.4303Z" fill="#FF4081"/>
<path d="M102.23 33.3544C101.178 33.813 100.947 34.6029 100.639 38.8073C100.151 45.4068 98.7911 49.5347 95.3774 54.7837C91.9638 60.0073 92.2718 58.0453 92.1948 73.7414C92.1178 89.565 92.0921 89.3611 94.1454 91.4505C94.9668 92.2914 95.8138 92.852 96.8404 93.2342C98.2778 93.7438 98.7398 93.7693 109.417 93.7693C116.501 93.7693 120.864 93.6674 121.506 93.489C124.432 92.6736 126.28 88.6222 124.458 86.9914C123.79 86.3799 123.842 86.176 124.843 85.7683C125.305 85.5645 126.126 84.8765 126.614 84.214C128.154 82.252 128.205 79.6529 126.793 78.3025C126.357 77.9203 126.023 77.4871 126.023 77.3342C126.049 77.2068 126.537 76.8501 127.127 76.5443C129.052 75.6015 130.233 72.9005 129.771 70.4544C129.642 69.8683 129.18 69.0784 128.539 68.3904C127.486 67.2693 127.486 67.2693 128.718 66.1991C130.951 64.2371 131.465 61.8928 130.233 59.4212C129.488 57.9178 128.436 57.026 126.768 56.44C125.792 56.0832 124.637 56.0578 117.913 56.2106C110.161 56.389 110.161 56.389 109.982 55.8284C109.879 55.5227 109.93 54.7328 110.084 54.0703C111.932 46.3751 112.317 42.3491 111.547 39.5972C110.803 37.0746 109.083 34.9597 106.773 33.7621C105.772 33.2525 103.077 32.9977 102.23 33.3544Z" fill="#FF4081"/>
</svg>
