<svg width="35" height="32" viewBox="0 0 35 32" fill="none" xmlns="http://www.w3.org/2000/svg">
<path fill-rule="evenodd" clip-rule="evenodd" d="M15.6376 3.55556C9.46601 3.55556 4.46297 8.33119 4.46297 14.2222C4.46297 20.1133 9.46601 24.8889 15.6376 24.8889C21.8091 24.8889 26.8122 20.1133 26.8122 14.2222C26.8122 8.33119 21.8091 3.55556 15.6376 3.55556ZM0.738098 14.2222C0.738098 6.36751 7.40882 0 15.6376 0C23.8664 0 30.5371 6.36751 30.5371 14.2222C30.5371 17.5088 29.3691 20.5351 27.408 22.9433L33.7164 28.9652C34.4437 29.6594 34.4437 30.7851 33.7164 31.4793C32.9892 32.1736 31.8099 32.1736 31.0826 31.4793L24.774 25.4576C22.2511 27.3296 19.0807 28.4445 15.6376 28.4445C7.40882 28.4445 0.738098 22.077 0.738098 14.2222Z" fill="white"/>
</svg>
