<svg width="41" height="32" viewBox="0 0 41 32" fill="none" xmlns="http://www.w3.org/2000/svg">
<path fill-rule="evenodd" clip-rule="evenodd" d="M25.4094 7.10778C20.5658 7.10778 16.64 11.0479 16.64 15.9091C16.64 20.7698 20.5658 24.7105 25.4094 24.7105C30.2525 24.7105 34.1789 20.7698 34.1789 15.9091C34.1789 11.0479 30.2525 7.10778 25.4094 7.10778ZM13.1566 4.4524C12.9894 4.97497 12.6988 5.44313 12.3213 5.82304C11.7057 6.4447 10.855 6.82696 9.91665 6.82696C8.97798 6.82696 8.12758 6.4447 7.51195 5.82701C6.89632 5.20914 6.51545 4.35511 6.51545 3.41339C6.51545 2.4713 6.89632 1.61782 7.51195 0.99995C8.12758 0.38226 8.97798 0 9.91665 0C10.855 0 11.7057 0.38226 12.3213 0.99995L12.3826 1.06722C12.7307 1.43537 12.9981 1.88038 13.1566 2.37456H16.8536C17.1181 2.37511 17.3831 2.47673 17.5851 2.67925L20.264 5.36808C21.8165 4.60302 23.5631 4.17357 25.4094 4.17357C31.867 4.17357 37.1023 9.42792 37.1023 15.9091C37.1023 18.6209 36.1856 21.1183 34.6463 23.1053L39.5971 28.074C40.1682 28.6467 40.1682 29.5757 39.5971 30.1484C39.0265 30.7216 38.1008 30.7216 37.5302 30.1484L32.5796 25.1797C30.5997 26.7245 28.1114 27.6447 25.4094 27.6447C23.6115 27.6447 21.9084 27.2368 20.3864 26.509L17.5851 29.3206C17.3831 29.5231 17.1181 29.6247 16.8536 29.6247L13.1566 29.6253C12.9981 30.1195 12.7307 30.5645 12.3826 30.9326L12.3213 30.9999C11.7057 31.6176 10.855 32 9.91665 32C8.97798 32 8.12758 31.6176 7.51195 30.9999C6.89632 30.382 6.51545 29.5285 6.51545 28.5864C6.51545 27.6447 6.89632 26.7907 7.51195 26.1728C8.13155 25.556 8.98032 25.1729 9.91665 25.1729C10.8521 25.1729 11.7014 25.5555 12.3176 26.1728L12.3213 26.1768C12.6993 26.5567 12.9889 27.0248 13.1561 27.5474H16.4257L18.5508 25.4146C16.7641 24.1143 15.3588 22.3182 14.534 20.2281L11.7228 23.0489C11.521 23.2516 11.256 23.3531 10.9913 23.3531L7.61573 23.3536C7.44835 23.8762 7.15847 24.3443 6.78048 24.7242C6.16484 25.3461 5.31409 25.7283 4.37578 25.7283C3.43692 25.7283 2.58671 25.3461 1.97108 24.7282C1.35545 24.1103 0.974579 23.2569 0.974579 22.3148C0.974579 21.3731 1.35545 20.519 1.97108 19.9013L2.0381 19.8399C2.64779 19.2589 3.4708 18.9012 4.37578 18.9012C5.31121 18.9012 6.16052 19.284 6.77651 19.9013L6.78048 19.9051C7.15847 20.285 7.44799 20.7532 7.61518 21.2758H10.5636L13.891 17.9369C13.7766 17.2778 13.7164 16.6006 13.7164 15.9091C13.7164 15.2721 13.7677 14.6474 13.8656 14.0374L10.5636 10.7241H7.61573C7.45718 11.2182 7.18981 11.6632 6.84155 12.0314L6.78048 12.0985C6.16484 12.7164 5.31409 13.0986 4.37578 13.0986C3.43692 13.0986 2.58671 12.7164 1.97108 12.0985C1.35545 11.4808 0.974579 10.6273 0.974579 9.68505C0.974579 8.74332 1.35545 7.88947 1.97108 7.2716C2.59067 6.65482 3.43945 6.27147 4.37578 6.27147C5.31121 6.27147 6.16052 6.65428 6.77651 7.2716L6.78048 7.27559C7.15847 7.65549 7.44799 8.12364 7.61518 8.64622H10.9913C11.256 8.64712 11.521 8.7482 11.7228 8.95091L14.4835 11.7217C15.2849 9.61633 16.6731 7.80268 18.447 6.48104L16.4257 4.4524H13.1566ZM10.8595 4.35964C11.0994 4.11968 11.2477 3.78498 11.2477 3.41339C11.2477 3.06259 11.1151 2.74362 10.8986 2.50657L10.8584 2.46823C10.6184 2.22737 10.2844 2.07765 9.91665 2.07765C9.54857 2.07765 9.21508 2.22737 8.97491 2.46823C8.73493 2.70927 8.58575 3.04397 8.58575 3.41339C8.58575 3.78245 8.73493 4.11769 8.97491 4.35855C9.21508 4.59959 9.54857 4.7493 9.91665 4.7493C10.2844 4.7493 10.6184 4.59959 10.8595 4.35964ZM4.37578 11.021C4.7435 11.021 5.07753 10.8712 5.31751 10.6302L5.35769 10.592C5.57425 10.355 5.70668 10.036 5.70668 9.68505C5.70668 9.31454 5.55857 8.97893 5.31949 8.73789C5.07933 8.49794 4.74494 8.34931 4.37578 8.34931C4.00607 8.34931 3.67222 8.49794 3.43206 8.73789C3.19406 8.98092 3.04488 9.31599 3.04488 9.68505C3.04488 10.0546 3.19406 10.3893 3.43404 10.6302C3.6742 10.8712 4.00769 11.021 4.37578 11.021ZM11.2477 28.5864C11.2477 28.2157 11.0994 27.8801 10.8604 27.6393C10.6204 27.3993 10.2858 27.2505 9.91665 27.2505C9.54712 27.2505 9.2131 27.3993 8.97293 27.6393C8.73493 27.8821 8.58575 28.2174 8.58575 28.5864C8.58575 28.9559 8.73493 29.2906 8.97491 29.5316C9.21508 29.7724 9.54857 29.9222 9.91665 29.9222C10.2844 29.9222 10.6184 29.7724 10.8584 29.5316L10.8986 29.4933C11.1151 29.2562 11.2477 28.9372 11.2477 28.5864ZM5.31949 21.3676C5.07933 21.1277 4.74494 20.9789 4.37578 20.9789C4.02625 20.9789 3.70844 21.112 3.47224 21.3293L3.43404 21.3696C3.19406 21.6105 3.04488 21.9457 3.04488 22.3148C3.04488 22.6842 3.19406 23.0189 3.43404 23.2599C3.6742 23.5008 4.00769 23.6505 4.37578 23.6505C4.7435 23.6505 5.07753 23.5008 5.31751 23.2599C5.55858 23.0209 5.70668 22.6857 5.70668 22.3148C5.70668 21.9443 5.55857 21.6085 5.31949 21.3676Z" fill="white"/>
</svg>
